<svg xmlns="http://www.w3.org/2000/svg" viewBox="0 0 16 16" fill="none">
  <ellipse cx="8" cy="4" rx="6" ry="2" fill="#6c9fce" stroke="#4a7aaa" stroke-width="0.5"/>
  <path d="M2 4v3c0 1.1 2.686 2 6 2s6-.9 6-2V4c0 1.1-2.686 2-6 2S2 5.1 2 4z" fill="#6c9fce" stroke="#4a7aaa" stroke-width="0.5"/>
  <path d="M2 7v3c0 1.1 2.686 2 6 2s6-.9 6-2V7c0 1.1-2.686 2-6 2S2 8.1 2 7z" fill="#5a8fbe" stroke="#4a7aaa" stroke-width="0.5"/>
  <path d="M2 10v2c0 1.1 2.686 2 6 2s6-.9 6-2v-2c0 1.1-2.686 2-6 2S2 11.1 2 10z" fill="#4a7fae" stroke="#4a7aaa" stroke-width="0.5"/>
</svg>
